<svg id="Grupo_1" data-name="Grupo 1" xmlns="http://www.w3.org/2000/svg" width="2000" height="2000" viewBox="0 0 2000 2000">
  <defs>
    <style>
      .cls-1 {
        fill: #041126;
        opacity: 0.3;
      }

      .cls-1, .cls-2 {
        fill-rule: evenodd;
      }

      .cls-2 {
        fill: #5392fa;
      }
    </style>
  </defs>
  <path id="Elipse_1_copia_3" data-name="Elipse 1 copia 3" class="cls-1" d="M211.259,1673.4H352.2V1101.73H542.221s285.8,30.11,324.627,329.38c10.717,299.01-202.073,381.84-326.211,413.31-3.867.72-476.648,0-476.648,0v139.35H542.221s446.2-26.96,470.319-508.32c0.74-238.86-155.193-375.3-155.193-375.3H1478.1s328.85,40.63,323.04,375.3c-0.4,12.47,0,506.74,0,506.74h147.27V1472.28s21.04-277.7-247.03-441.81c144.47-98.205,248.45-229.554,252.31-477.463-13.07-167.742-124.61-428.71-474.01-483.748-26.25.867-468.73,1.584-468.73,1.584V219.7H1478.1s304.1,27.695,329.38,357.883c-9.41,340.484-327.8,376.885-327.8,376.885H852.6s266.333-213.4,123.516-558.993C875.327,153.687,679.272,94.771,539.054,69.259c-28.481-2.006-471.9,0-471.9,0V214.946H542.221S862.565,276.654,865.265,585.5c-3.8,198.265-141.8,337.969-323.044,368.967-15.763.41-190.026,0-190.026,0V362.216h-144.1Z"/>
  <path id="Elipse_1_copia_4" data-name="Elipse 1 copia 4" class="cls-2" d="M176.069,1627.65H317.005V1055.99H507.031s285.8,30.1,324.627,329.38c10.717,299-202.073,381.83-326.211,413.3-3.867.73-476.648,0-476.648,0v139.35H507.031s446.2-26.96,470.314-508.32c0.742-238.86-155.188-375.3-155.188-375.3H1442.91s328.85,40.63,323.04,375.3c-0.4,12.48,0,506.74,0,506.74h147.27v-509.9s21.04-277.71-247.03-441.813c144.47-98.209,248.45-229.558,252.31-477.467-13.07-167.742-124.61-428.71-474.01-483.748-26.25.867-468.728,1.584-468.728,1.584V173.949H1442.91s304.1,27.695,329.38,357.883c-9.41,340.484-327.8,376.885-327.8,376.885H817.407s266.333-213.4,123.516-558.993C840.137,107.94,644.082,49.024,503.864,23.512c-28.481-2.006-471.9,0-471.9,0V169.2H507.031S827.375,230.907,830.075,539.75c-3.8,198.265-141.8,337.969-323.044,368.967-15.763.41-190.026,0-190.026,0V316.469H172.9Z"/>
</svg>
